<svg width="65" height="21" viewBox="0 0 65 21" fill="none" xmlns="http://www.w3.org/2000/svg">
<path d="M63 1C63 0.447715 63.4477 0 64 0C64.5523 0 65 0.447715 65 1H63ZM64 13H65C65 13.5523 64.5523 14 64 14V13ZM0.292892 13.7071C-0.0976334 13.3166 -0.0976334 12.6834 0.292892 12.2929L6.65685 5.92893C7.04738 5.53841 7.68054 5.53841 8.07107 5.92893C8.46159 6.31946 8.46159 6.95262 8.07107 7.34315L2.41422 13L8.07107 18.6569C8.46159 19.0474 8.46159 19.6805 8.07107 20.0711C7.68054 20.4616 7.04738 20.4616 6.65685 20.0711L0.292892 13.7071ZM64 1H65V13H64H63V1H64ZM64 13V14H1V13V12H64V13Z" fill="#C4732B"/>
</svg>
